<?xml version="1.0" encoding="utf-8"?>
<!-- Generator: Adobe Illustrator 21.1.0, SVG Export Plug-In . SVG Version: 6.00 Build 0)  -->
<svg version="1.1" id="Layer_1" xmlns="http://www.w3.org/2000/svg" xmlns:xlink="http://www.w3.org/1999/xlink" x="0px" y="0px"
	 viewBox="0 0 700 700" style="enable-background:new 0 0 700 700;" xml:space="preserve">
<g>
	<path d="M302.9,429.7c-0.3,1.9-1.5,4.3-0.8,5.7c0.7,1.3,3.3,1.6,6.7,3c0-3.6,0.7-6.2-0.2-7.3C307.5,429.9,304.8,430.1,302.9,429.7z
		"/>
	<path d="M317.7,411.1c-1.1-1.1-3.7-0.8-5.7-1.2c-0.3,2-1.3,4.4-0.5,5.8c0.7,1.3,3.4,1.4,6.9,2.6
		C318.1,414.7,318.7,412.1,317.7,411.1z"/>
	<path d="M291.6,409.7c-0.4,1.9-1.8,4.3-1.1,5.7c0.6,1.3,3.3,1.7,6.6,3.2c0.1-3.6,0.9-6.1,0-7.3
		C296.1,410.1,293.5,410.2,291.6,409.7z"/>
	<path d="M360.1,430.5c-1.1,0.8-1.6,4.3-0.9,5c1.2,1.2,4.2,2.1,5.5,1.4c1.3-0.7,1.5-3.5,2.7-6.8
		C363.8,430.1,361.4,429.5,360.1,430.5z"/>
	<path d="M276,425.5c-1.2,1-1.7,4-1,5.5c0.4,1,3.9,1.9,5.1,1.2c1.4-0.8,1.8-3.3,3.3-6.6C279.7,425.5,277.1,424.6,276,425.5z"/>
	<path d="M242.4,314.9c-11.3-13-26.9-13.5-39.6-0.6c2.8-1.1,4.7-2,6.8-2.6c8.4-2.7,16.2-1.5,22.4,5c10.9,11.5,10.9,32.7,0.2,44.7
		c-9.7,10.9-23.1,10-31.4-1.9c-5.2-7.4-7.5-15.5-7.6-25.4c-6.2,14.2-0.7,33.1,11.3,40.9c11,7.2,25.7,5,36.5-5.3
		C255.8,355.4,256.4,331.2,242.4,314.9z"/>
	<path d="M211.6,336.3c4.1-2.6,5.2-7.4,2.5-11.7c-2.7-4.3-7.6-5.5-11.7-2.9c-4,2.5-5.1,7.6-2.5,11.8
		C202.5,337.6,207.5,338.8,211.6,336.3z"/>
	<path d="M266.2,403.2c0.1,3.6-0.6,6.2,0.4,7.3c1,1.2,3.6,0.9,5.5,1.3c0.3-1.9,1.4-4.3,0.7-5.6C272.2,404.8,269.6,404.5,266.2,403.2
		z"/>
	<path d="M296,393.4c-1.1,1-1.7,4.3-0.8,5.4c0.9,1.2,4.2,1.8,5.4,1c1.3-0.8,1.4-3.5,2.4-6.8C299.7,393.1,297.1,392.4,296,393.4z"/>
	<path d="M485.1,353.1c-5.7,17.4-18.3,26.3-30,22.3c-10.4-3.6-16.4-17.2-12.5-29.2c2.5,4.7,6,7.1,11,5.1c3.7-1.5,5.9-4.3,5.3-8.5
		c-0.8-6-5.1-7.9-11-8.5c7.6-7,16.1-4.7,25.1-4.2c-10-9.4-22.8-9.3-31.5-0.3c-12.2,12.5-14.4,34.7-4.9,49.3
		c7.4,11.4,18.2,14.4,30.4,8.1c2.6-1.3,5-3.1,7.1-5.1C482.1,374.7,486.5,365.7,485.1,353.1z"/>
	<path d="M350,0.6C157,0.6,0.6,157,0.6,350S157,699.4,350,699.4S699.4,543,699.4,350S543,0.6,350,0.6z M367.6,177.4
		c12.1-9.3,32.2-9,45.2,1.5c-8.3-2.3-15.6-2.1-22.8,0.6c-10.5,3.9-17.5,11.8-15.2,24.6c2,10.9,2.2,22.2,1.8,33.3
		c-0.3,7.8-6,13.6-12,18.5c6.7-14.2,5.5-28.3,0.6-42.5c-2-5.7-3.7-11.5-4.9-17.4C358.6,188.3,361.4,182.1,367.6,177.4z M313.8,174.9
		c5.1-2.5,10.5-4.5,15.8-6.8c-7,12.7-3.9,24.8-1.3,37c1.6,7.7,2.9,15.5,4.1,23.3c0.3,2.3-0.2,4.7-0.8,7.2
		c-1.8-13.8-10.5-24.3-16.5-36c-2.3-4.4-3.9-9.1-5.5-13.8C308,181.1,309.3,177.1,313.8,174.9z M148.6,338.5
		c-3.8,5.2-9.8,6.8-16.2,5.5c-6.2-1.3-9-5.8-10.8-11.4c-0.2-0.7-0.5-1.3-0.5-2c-1.8-17.4-9.6-32.2-20.3-45.6
		c-0.2-0.3-0.4-0.6-0.6-0.9c-12-18.8-10.7-31.1,6.3-45.8c12.6-10.9,26-20.9,39.1-31.2c19.7-10.4,38.3-22.4,59.6-29
		c8.1-2.5,16.8-3.7,25.3-4.2c7.4-0.5,13.7,3.1,18.2,9.1c4,5.2,3.1,9.3-2.8,12c-4.1,1.8-8.3,3.5-12.6,4.5
		c-24,5.4-39.6,21.2-51.1,41.8c-8.4,15-12.6,31.7-16.9,48.2c-3,11.3-5.4,22.8-8.9,34C154.7,328.8,151.9,334,148.6,338.5z
		 M376.6,534.2c-4.3,0.1-8.6-0.1-12.9-0.6c-16.2-1.9-31.9,0.9-47.7,4.1c-7.7,1.5-15.7,2.3-23.6,2.2c-10.9-0.2-15.9-7.1-12.5-17.4
		c6.6-20.3,19.2-36.4,38.1-46.3c16.3-8.6,32.8-4.3,48.8,10.9c12.5,11.9,21.8,26.2,30.3,41.7C390.6,533.1,383.6,534,376.6,534.2z
		 M519.9,420.8c-2,29.2-13.8,52.8-39.8,67.8c-9.4,5.5-16.7,13.1-23.9,21.1c-4.9,5.5-10.2,10.8-16.2,15.1c-10.4,7.3-21.5,6-30.5-3
		c-4-4-7.2-8.8-10.7-13.3c-1.7-2.2-3.2-4.5-4.6-6.9c-8.3-14.4-19.4-26.1-34.5-33.2c-15.2-7.2-20.7-19.1-19.8-35.2
		c0.4-6.8,0-13.6,0-20.4c-0.4,0-0.8-0.1-1.3-0.1c-1,6.5-1.9,13.1-3,19.6c-1.1,6.5-2,13-3.8,19.2c-0.7,2.5-3.3,5.2-5.8,6.3
		c-23.3,10.3-40.8,26.7-52.3,49.4c-2.1,4.1-3.4,8.7-4.7,13.1c-2,7.1-7,10.3-13.9,11.2c-18.6,2.5-36.3-11.1-37.3-29.8
		c-0.6-12.3-7.8-20.7-14.8-29.4c-6.7-8.3-13.9-16.3-20.8-24.4c-16.6-19.4-22-41.5-17.6-66.6c2-11.3,2.1-22.9,2.9-34.4
		c0.1-2-0.6-4-0.9-6c7.2,12.2,8.3,25.5,8.7,39c0.3,11,0.3,22.2,2.4,32.9c4,20.2,17.1,34.9,32.5,48.6c3.9-8.2,4.3-16.3,3.1-24.6
		c-2.1-14.7-8.8-27.8-14.6-41.2c-4.8-11.2-9.7-22.5-13.5-34.1c-5.2-15.9-3.4-31.5,5.7-45.7c17.7-27.5,42.9-43.7,75.4-48
		c2.7-0.4,5.5-0.3,8.3,0c13.3,1.3,19.6,9,18.6,22.3c-0.1,1.8-0.2,3.7,0.9,6.2c3-4.2,6.7-8.2,8.9-12.8c4.7-9.9-0.7-20-12.5-23.5
		c-18.5-5.3-36.5-2.5-54.3,3.6c-3,1-5.9,2.5-8.8,3.8c-0.3-0.6-0.5-1.1-0.8-1.7c7.7-3.7,15.2-8.1,23.2-10.8c17.9-6.2,36.2-8,54.1-0.2
		c19,8.3,24.2,30.1,10.1,45.3c-8.8,9.5-20.1,16.7-30.1,25c-6.5,5.4-13,10.8-19,16.6c-2.5,2.5-3.9,6.2-5,9.8c7.2-6,14-12.5,21.6-17.9
		c36.9-25.8,75.8-24.6,111.7,4c10.8,8.6,19.9,19.5,29.8,29.3c0.6,0.6,1.1,1.2,2.6,1.2c-3.7-5.5-6.6-11.8-11.1-16.5
		c-8.1-8.2-17-15.5-25.9-22.9c-18.2-15.2-21.4-27.3-12.3-49.2c3.5-8.5,8.1-16.4,15.7-22.1c10.9-8.3,22.9-9.9,35.7-5.6
		c11.5,3.9,28.1,16.9,35.9,28.4c-6.4-4.4-11.6-8.1-17-11.5c-4.7-2.9-9.4-5.8-14.5-8c-22.1-9.6-43.3,3.8-44.7,28
		c-0.5,9.8,2.3,18.5,10,26.3c0.6-5.7,0.9-10.5,1.5-15.2c1.2-9.9,5.9-17.8,14.5-22.7c3.8-2.2,8.9-3.8,13.1-3.2
		c28.8,4.5,64.7,30.3,70.6,63.9c2.3,12.9,0.6,25.4-2.5,37.9c-3.4,13.7-8,27.2-10.2,41.1c-1.8,11.5-0.7,23.4-1.2,35.1
		c-0.3,7.2-1.2,14.3-1.8,21.7c9.9-8.1,17.3-18.1,22-30.2c6.6-16.9,7-34.7,7.7-52.4c0.7-15.5,1.2-31.1,6.9-45.8
		c1.2-3.1,2.7-6.2,4.5-9.2C516.2,364.4,521.8,392.8,519.9,420.8z M581.8,277.7c-6,8.6-12.5,16.9-19.2,24.9
		c-10.8,13-13.9,27.2-8.3,43.4c2.9,8.4,5.2,17.1,7.2,25.9c0.9,3.8,2.4,9.1-2.6,11c-5.4,2.1-7.8-3.1-9.4-6.8
		c-4.9-11.9-9.1-24.1-13.7-36.2c-7.1-18.6-12.4-38.3-21.8-55.6c-12.1-22.1-27.3-42.6-41.8-63.4c-9.3-13.4-19.8-26-30.1-39.5
		c13-7.1,25.5-6.1,38.1-1.2c19.9,7.7,39.8,15.5,59.6,23.4c6.6,2.6,13.1,5.3,19.4,8.5c9.1,4.8,16.6,11.6,22.6,20
		C592.5,247.3,592.2,262.6,581.8,277.7z"/>
	<path d="M363.4,403c-0.2,3.7-1.1,6.3-0.1,7.5c1,1.2,3.7,1.1,5.7,1.5c0.4-1.8,1.7-4.1,1-5.4C369.2,405.1,366.7,404.6,363.4,403z"/>
	<path d="M382.7,367.5c-2.5-0.7-5.6-2.2-6.9-4.2c-14-23-48.6-26.3-66.5-6.2c-1.2,1.3-2.7,2.8-4.4,3.2c-16.9,4.7-31,14.2-43.4,26.2
		c-7,6.9-13.2,14.6-19.7,22c0.3,0.3,0.7,0.6,1,0.9c30.9-25.4,52.4-38.3,62.3-37.9c2.2,5.6,3.8,11,6.5,15.9c1,1.8,4.4,2.2,6.6,3.3
		c0.6-2.3,1.7-4.7,1.5-6.9c-0.2-2.5-2.1-4.8-2.4-7.3c-0.2-1.8,0.6-5,1.7-5.5c1.8-0.7,5.1-0.3,6.3,1c1.6,1.6,2.7,4.7,2.4,6.9
		c-0.7,5.4-2.5,10.6-3.7,16c-0.3,1.6-0.5,4.1,0.4,4.8c2.6,2.2,5.8,3.8,9.8,6.3c2.2-7.9,4-14.5,5.8-21.1c0.2,0,0.4,0.1,0.7,0.1
		c0.4,6.9,0.8,13.8,1.2,20.9c9.7-2.5,12.1-6.5,9.9-15.3c-1.3-5.2-2.6-10.6,1.3-15.3c2.5-3,5.1-6.7,9.8-4.6c3,1.4,2.5,6.2-1,11
		c-1.8,2.4-3.9,4.7-0.9,7.6c3,3,6.3,2.1,8.8-0.3c3.1-3.1,5.7-6.8,8.9-10.7c27.2,3.5,46.1,19.9,61,42.7c-0.1-0.5-0.1-0.9-0.2-1.4
		C430,391.9,410.6,375.2,382.7,367.5z"/>
	<path d="M379,419.5c-1.1,1-1.6,4.2-0.9,5.5c0.7,1.1,4,1.7,5.3,1c1.3-0.7,1.5-3.4,2.7-6.5C382.8,419.4,380.1,418.5,379,419.5z"/>
	<path d="M401.2,418.7c-1.2,0.9-1.7,4-1.1,5.5c0.4,1,3.8,2,5,1.4c1.4-0.8,1.9-3.3,3.4-6.4C405,418.9,402.4,417.8,401.2,418.7z"/>
	<path d="M386.5,396.3c-0.1,3.7-1,6.2-0.1,7.3c1,1.2,3.6,1.2,5.5,1.7c0.4-1.9,1.7-4.2,1-5.7C392.5,398.4,389.8,397.9,386.5,396.3z"
		/>
</g>
</svg>
